<?xml version="1.0" standalone="no"?>
<!DOCTYPE svg PUBLIC "-//W3C//DTD SVG 20010904//EN"
 "http://www.w3.org/TR/2001/REC-SVG-20010904/DTD/svg10.dtd">
<svg version="1.0" xmlns="http://www.w3.org/2000/svg"
 width="300.000000pt" height="300.000000pt" viewBox="0 0 300.000000 300.000000"
 preserveAspectRatio="xMidYMid meet" fill="CurrentColor">
<metadata>
Created by potrace 1.10, written by Peter Selinger 2001-2011
</metadata>
<g transform="translate(0.000000,300.000000) scale(0.100000,-0.100000)"
fill="#000000" stroke="none">
<path d="M1494 2188 c-5 -8 -31 -22 -58 -33 -62 -23 -128 -87 -144 -141 -19
-65 -14 -144 9 -144 5 0 9 27 9 59 0 71 12 106 48 144 34 36 122 83 122 65 0
-24 -71 -373 -80 -393 -5 -11 -11 -38 -13 -60 -3 -22 -21 -127 -41 -233 -36
-195 -44 -276 -27 -287 11 -6 41 32 41 52 0 7 -6 13 -14 13 -14 0 -9 32 50
350 l18 96 66 31 c36 17 94 55 129 83 69 56 85 58 136 19 87 -69 70 -238 -37
-354 -62 -68 -167 -123 -251 -132 -39 -4 -57 -10 -57 -19 0 -18 32 -18 103 1
162 42 275 149 314 296 15 57 15 74 4 123 -14 62 -61 121 -106 132 -26 6 -32
18 -15 29 25 15 60 106 60 154 0 44 -4 55 -35 85 -38 39 -86 56 -155 56 -26 0
-51 5 -57 11 -8 8 -13 7 -19 -3z m126 -39 c123 -26 151 -117 71 -234 -24 -36
-33 -41 -81 -47 -64 -9 -103 -23 -144 -52 l-29 -20 7 30 c4 16 21 94 37 173
16 80 35 148 42 153 16 11 37 10 97 -3z m-6 -324 c-74 -59 -181 -121 -190
-112 -11 10 22 58 55 81 33 23 141 59 150 50 3 -2 -4 -11 -15 -19z"/>
<path d="M380 2167 c-169 -57 -291 -174 -292 -280 -1 -47 18 -95 33 -80 5 5 4
22 -3 40 -41 109 142 278 340 313 85 15 143 1 176 -43 73 -99 -54 -341 -223
-425 l-62 -31 -34 21 c-19 11 -35 22 -35 23 0 2 20 86 45 186 29 119 42 186
35 193 -12 12 -11 15 -62 -194 l-43 -175 -42 3 c-34 3 -44 -1 -53 -18 -9 -17
-7 -24 14 -45 14 -14 32 -25 41 -25 8 0 15 -3 15 -8 0 -4 -18 -84 -40 -179
-50 -218 -59 -283 -37 -283 9 0 23 13 32 30 19 36 19 40 0 40 -11 0 -14 7 -10
23 20 95 77 345 81 360 4 13 16 17 49 17 48 0 53 -5 185 -181 91 -122 136
-149 187 -114 22 15 23 14 38 -22 35 -82 94 -114 173 -92 71 19 167 119 220
229 71 147 95 245 95 390 1 107 -2 133 -22 182 -25 64 -78 118 -117 118 -33 0
-78 -24 -102 -55 -11 -14 -27 -25 -36 -25 -31 0 -106 -81 -141 -154 -64 -132
-110 -350 -103 -491 3 -45 1 -50 -24 -59 -44 -16 -72 5 -149 111 -40 54 -88
115 -107 135 -20 21 -34 39 -31 41 2 2 24 12 49 23 68 29 180 145 221 228 60
123 51 231 -24 276 -45 28 -151 27 -237 -3z m729 -79 c45 -41 64 -104 69 -223
3 -94 0 -124 -22 -210 -34 -129 -102 -268 -166 -334 -104 -108 -194 -108 -253
2 -20 37 -22 56 -21 167 1 145 30 273 88 393 31 64 101 155 112 144 2 -2 -5
-24 -15 -48 -44 -99 -80 -285 -97 -491 -6 -77 -4 -88 10 -88 13 0 16 11 16 53
0 136 46 396 90 507 29 75 36 81 66 68 32 -15 45 0 16 20 l-23 15 22 23 c29
31 77 32 108 2z m-871 -396 c11 -7 8 -42 -4 -42 -10 0 -54 24 -54 30 0 20 34
27 58 12z"/>
<path d="M2124 2138 c-145 -137 -239 -362 -189 -457 21 -42 125 -81 125 -47 0
8 -15 16 -38 20 -21 3 -47 15 -57 27 -28 30 -24 108 8 187 50 123 180 292 224
292 26 0 22 -28 -52 -357 -74 -326 -135 -616 -135 -644 0 -10 6 -19 14 -19 16
0 28 24 20 44 -5 14 62 339 147 704 51 222 57 270 37 290 -22 22 -49 12 -104
-40z"/>
<path d="M2510 2174 c-132 -88 -280 -320 -288 -451 -4 -58 -2 -64 26 -93 23
-22 40 -30 66 -30 46 0 47 16 1 24 -40 8 -75 47 -75 85 1 112 183 391 291 447
57 29 55 5 -29 -366 -56 -246 -132 -615 -132 -639 0 -6 6 -11 14 -11 10 0 27
39 52 117 122 394 308 733 400 733 50 0 51 -82 4 -415 -18 -132 -25 -203 -21
-232 2 -20 29 -15 41 6 14 27 13 34 -5 27 -19 -7 -19 -13 11 189 13 94 27 222
31 285 6 113 5 116 -19 144 -31 36 -61 31 -118 -20 -87 -79 -213 -315 -291
-542 -23 -67 -43 -121 -44 -120 -2 2 35 172 82 378 93 413 102 462 83 485 -16
20 -49 19 -80 -1z"/>
</g>
</svg>
